<svg width="1440" height="874" viewBox="0 0 1440 874" fill="none" xmlns="http://www.w3.org/2000/svg">
<path fill-rule="evenodd" clip-rule="evenodd" d="M558.965 520.563C558.827 502.156 504.012 481.457 480.597 470.786C434.3 449.679 386.147 430.187 338.441 410.385C290.736 390.582 242.901 370.834 197.411 349.093C167.874 334.981 133.168 319.086 113.136 298.935C70.4614 255.991 205.009 262.368 239.861 261.429C328.524 259.029 430.221 260.124 513.328 237.761C562.94 224.411 582.723 202.021 572.068 169.389C568.633 158.777 558.467 146.564 567.079 136.226C576.275 125.184 597.432 118.812 614.991 114.539C679.036 98.9719 752.673 97.1682 820.437 95.2143C893.506 93.0671 967.263 93.6952 1039.82 93.5287C1070.58 93.459 1102.71 86.5503 1132.01 80.9354C1170.42 73.5759 1208.37 65.3092 1246.46 57.3163C1330.25 39.7737 1416.6 21.2971 1505.25 16.8417C1560.77 14.0503 1621.45 17.824 1664.58 42.1034C1686.23 54.2941 1697.57 72.4165 1710.09 88.515C1725.24 107.963 1739.79 127.599 1755.93 146.742C1807.9 208.393 1882.11 268.638 2002.55 271.665C2020.77 272.122 2038.66 270.635 2056.79 270.356C2068.34 270.184 2078.62 271.928 2082.91 279.481C2093.71 298.425 2059.78 328.33 2045.87 343.36C2015.42 376.261 1981.07 407.685 1948.9 439.925C1927.61 461.247 1890.77 490.384 1890.38 516.29C1890.04 539.372 1939.15 556.056 1965.89 567.425C1990.95 578.07 2036.34 592.966 2039.09 614.621C2040.42 625.121 2029.34 633.822 2017.78 640.575C1997.51 652.385 1974.15 660.716 1955.91 674.189C1926.01 696.295 1901.02 726.71 1905.08 756.497C1907.9 777.137 1926.74 790.653 1950.7 803.574C1960.77 809.006 1968.95 812.85 1969.48 821.669C1970.34 835.674 1961.56 850.495 1954.33 863.481C1928.47 909.951 1891.74 954.887 1850.88 996.843C1830.46 1017.81 1808.4 1038.71 1781.33 1056.6C1763.6 1068.34 1739.68 1082.32 1712.64 1082.31C1681.32 1082.31 1648.19 1075.24 1617.75 1069.96C1560.9 1060.09 1504.73 1048.68 1448.79 1036.97C1319.43 1009.88 1191.28 980.601 1064.34 949.127C974.931 926.919 883.624 904.68 799.563 875.156C783.17 869.358 767.696 862.598 753.351 854.967C738.025 846.953 719.006 843.367 699.721 840.694C580.027 824.101 448.896 836.839 328.704 844.827C298.197 846.851 267.69 848.885 237.097 850.302C210.797 851.521 179.311 855.015 153.749 849.765C103.381 839.432 147.412 801.346 166.027 785.827C231.567 731.187 316.126 684.957 394.502 637.762C431.767 615.286 469.315 592.87 504.553 569.122C522.902 556.775 559.085 536.699 558.965 520.563Z" stroke="#171B1F"/>
<path fill-rule="evenodd" clip-rule="evenodd" d="M581.55 517.46C561.462 497.982 526.216 483.586 496.96 470.038C454.858 450.534 411.433 432.114 368.661 413.163C328.217 395.242 287.687 377.117 250.234 356.765C227.395 344.354 198.74 329.513 187.923 311.157C164.457 271.371 290.695 277.407 321.859 276.366C399.335 273.791 487.173 273.201 558.85 252.253C603.607 239.172 621.994 217.479 612.448 187.362C609.149 176.942 603.203 168.045 610.73 157.679C619.434 145.681 639.454 138.202 657.807 132.922C715.297 116.38 783.253 112.865 845.573 109.941C909.954 106.92 977.034 104.79 1039.34 107.001C1064.26 107.881 1092.94 102.885 1117.6 99.0542C1155.55 93.1521 1193.1 86.3431 1230.86 80.0117C1307.59 67.1342 1386.31 54.7289 1466.13 53.3178C1523.76 52.2983 1583.84 57.8248 1631.79 79.1854C1680.38 100.846 1701.94 134.424 1728.88 166.344C1775.42 221.53 1838.27 288.627 1945.93 300.286C1962.25 302.057 1977.94 301.097 1994.25 301.531C2002.64 301.751 2012.18 302.449 2016.44 307.616C2027.48 321.03 1997.23 345.556 1987.04 355.831C1958.91 384.226 1927.28 411.231 1897.8 439.079C1874.39 461.19 1844.71 485.76 1835.66 511.971C1824.67 543.778 1896.47 566.41 1921.73 588.806C1965.5 627.642 1882.56 649.77 1841.67 668.287C1794.71 689.546 1755.96 728.328 1798.05 761.219C1814.15 773.796 1833.96 781.292 1841.16 797.706C1852.4 823.375 1843.9 852.709 1834.77 878.083C1821.02 916.227 1799.27 953.958 1769.69 988.432C1748.51 1013.11 1713.35 1051.82 1661.88 1048.91C1627.23 1046.98 1592 1039.9 1558.26 1033.64C1507.73 1024.28 1457.85 1013.61 1408.23 1002.52C1293.68 977.003 1180.4 948.866 1069.35 917.917C993.574 896.792 782.205 810.465 766.301 807.385C718.88 798.21 664.964 799.825 616.074 801.247C551.039 803.136 486.331 808.029 421.675 812.563C390.897 814.709 359.965 817.333 329.024 818.39C307.003 819.141 278.081 819.785 258.791 811.785C221.14 796.176 263.088 760.463 280.435 745.353C333.578 699.032 400.804 658.919 463.837 617.904C494.769 597.767 526.173 577.662 554.253 555.91C565.578 547.126 593.966 529.489 581.55 517.46Z" stroke="#171B1F"/>
<path fill-rule="evenodd" clip-rule="evenodd" d="M609.342 507.471C554.48 468.495 478.759 439.507 413.408 406.956C380.608 390.613 347.601 373.824 319.311 354.358C304.594 344.235 286.218 331.435 283.383 317.325C275.806 279.578 389.585 284.682 423.64 283.249C489.481 280.469 563.862 278.359 623.595 259.097C660.089 247.321 678.061 227.994 671.24 202.592C668.216 191.321 663.508 181.746 671.24 170.679C679.075 159.467 695.398 151.556 711.927 145.625C759.427 128.568 818.455 123.115 871.934 119.053C934.67 114.32 997.878 112.473 1061.05 113.524C1116.37 114.431 1171.43 104.229 1225.45 97.5036C1297.02 88.5995 1369.88 80.8226 1443.11 81.998C1500.94 82.9319 1559.23 90.2687 1608.67 109.767C1658.91 129.626 1689.12 159.349 1716.35 191.423C1757.52 239.909 1808.82 304.884 1899.14 323.298C1912.28 325.982 1924.52 326.277 1938.07 326.744C1944.65 326.969 1953.14 327.039 1956.41 331.328C1964.26 341.654 1935.23 361.673 1927.13 368.65C1901.27 390.924 1873.24 412.194 1846.74 434.172C1821.99 454.691 1795.04 476.073 1779.67 500.118C1755.22 538.412 1833.41 560.804 1831.22 597.295C1829.85 619.95 1795.14 636.196 1767.65 647.435C1733.8 661.255 1685.06 670.342 1668.12 695.562C1655.5 714.347 1675.3 725.279 1690.55 739.534C1716.39 763.686 1718.15 796.426 1715.47 824.383C1711.84 862.162 1697.67 900.5 1673.56 935.225C1662.63 950.967 1649.25 967.342 1629.54 979.568C1611.08 991.027 1593.6 993.963 1568.93 991.617C1493.4 984.425 1417.13 964.379 1344.7 946.474C1253.7 923.975 1163.95 899.136 1076.88 871.19C1017.51 852.131 956.796 831.967 904.683 805.636C891.101 798.771 877.192 791.311 867.261 782.257C859.752 775.451 856.565 769.832 843.91 765.946C806.402 754.434 754.229 757.445 714.04 758.641C649.78 760.547 585.829 765.619 521.963 770.186C484.696 772.87 414.49 781.312 384.731 761.062C359.044 743.576 390.04 713.762 405.873 698.358C445.925 659.403 497.445 625.215 545.245 590.012C567.152 573.878 589.918 557.621 608.011 539.684C612.633 535.112 620.038 529.052 621.309 523.497C622.736 517.132 616.078 512.275 609.342 507.471Z" stroke="#171B1F"/>
<path fill-rule="evenodd" clip-rule="evenodd" d="M614.059 516.544C563.364 482.082 502.29 453.77 447.867 421.521C423.465 407.062 398.823 391.893 380.229 374.254C370.228 364.769 359.607 352.828 362.366 341.039C370.279 307.2 463.857 310.256 501.663 308.274C557.84 305.363 622.376 302.43 672.048 284.184C704.587 272.233 716.788 254.583 710.713 231.819C704.191 207.402 718.773 189.677 751.956 176.055C793.56 158.991 846.076 152.035 894.381 147.093C952.58 141.168 1011.52 138.542 1070.47 139.246C1127.81 139.933 1183.36 133.928 1240.31 130.024C1315.83 124.851 1393.77 122.3 1468.44 132.903C1533.45 142.136 1592.17 162.482 1636.19 193.947C1682.16 226.787 1704.92 268.161 1742.26 304.493C1765.54 327.154 1798.01 357.131 1841.52 365.94C1856.04 368.878 1882.48 364.914 1870.89 379.368C1864.27 387.634 1851.87 394.885 1842.07 401.642C1826.25 412.562 1809.9 423.181 1793.8 433.95C1759.5 456.907 1722.77 480.353 1697.06 507.537C1664.67 541.762 1712.82 568.103 1706.95 602.806C1703.8 621.482 1683.02 636.388 1661.04 648.097C1646.82 655.681 1631.26 662.25 1615.38 668.379C1598.78 674.781 1579.15 679.658 1564.68 687.935C1544.06 699.715 1553.01 713.658 1556.88 728.886C1563.68 755.647 1565.18 782.83 1561.33 809.82C1556.62 842.901 1545.58 876.928 1522.32 906.991C1513.27 918.695 1501.81 931.103 1484.79 938.95C1467.77 946.798 1450.16 946.26 1430.66 943.897C1372.81 936.914 1315.08 920.666 1260.2 905.267C1191.51 885.99 1124.17 864.446 1059.87 839.936C1015.48 823.017 970.947 804.739 933.811 781.798C923.011 775.122 912.734 767.972 904.426 759.991C898.72 754.517 895.662 747.454 887.396 743.34C861.533 730.497 809.61 734.332 779.279 735.079C718.747 736.567 659.168 743.641 598.713 745.359C565.719 746.299 514.045 748.663 489.815 731.104C467.028 714.598 487.667 688.601 501.285 672.697C528.05 641.426 564.009 613.565 596.238 584.496C609.488 572.534 624.008 560.019 632.592 546.36C640.222 534.189 627.05 525.38 614.059 516.544Z" stroke="#171B1F"/>
<path fill-rule="evenodd" clip-rule="evenodd" d="M626.527 517.108C586.176 486.782 537.532 459.863 496.889 429.044C473.099 410.995 432.129 380.654 450.528 355.209C470.712 327.249 541.069 326.487 581.738 324.235C630.142 321.553 686.985 317.89 728.41 300.431C741.511 294.912 752.672 287.607 757.402 277.985C762.468 267.687 756.93 258.676 756.209 248.367C754.698 226.741 775.354 209.379 802.69 197.456C841.324 180.599 889.634 172.628 935.265 167.072C986.962 160.804 1039.52 157.715 1092.18 157.846C1142.51 157.954 1192.3 157.256 1242.68 156.452C1308.56 155.379 1375.38 157.112 1439.28 168.048C1502.24 178.829 1559.48 199.033 1604.44 228.753C1648.3 257.753 1677.9 293.201 1703.82 329.308C1718.52 349.803 1743.37 380.429 1778.45 390.78C1794.05 395.387 1809.36 395.071 1792.77 407.053C1771.88 422.141 1743.73 434.246 1719.54 447.151C1684.64 465.773 1648.86 484.76 1619.57 506.901C1600.86 521.039 1592.52 534.759 1593.81 553.065C1594.81 567.01 1599.32 580.811 1597.04 594.81C1591.69 627.667 1550.28 650.199 1513.68 671.181C1490.13 684.676 1468.62 694.969 1456.5 714.165C1442.16 736.853 1436.14 761.536 1426.56 785.092C1416.04 810.961 1403.88 837.87 1380.9 860.654C1360.45 880.939 1335.58 890.036 1298.36 884.57C1240.29 876.053 1183.06 855.071 1131.52 835.66C1079.05 815.911 1027.49 793.706 984.012 766.561C960.54 751.903 944.52 734.691 923.674 718.944C897.455 699.174 838.139 706.661 802.887 708.335C744.37 711.113 560.24 731.902 577.23 664.568C584.322 636.463 612.25 610.525 632.674 585.724C641.14 575.431 653.391 563.079 655.305 551.285C657.392 538.439 638.658 526.237 626.527 517.108Z" stroke="#171B1F"/>
<path fill-rule="evenodd" clip-rule="evenodd" d="M647.832 519.683C616.996 492.202 580.093 466.24 553.635 436.558C536.471 417.336 519.615 391.653 541.757 371.314C566.748 348.362 621.854 343.012 662.344 340.087C704.062 337.077 753.864 334.544 787.96 317.141C798.808 311.598 807.751 304.122 809.416 295.171C811.02 286.585 806.489 277.999 807.991 269.257C811.355 249.627 830.399 233.453 854.952 221.722C927.582 187.018 1035.68 179.301 1123.31 178.394C1167.18 177.943 1212.32 180.31 1256.47 182.006C1313.75 184.206 1371.12 188.928 1425.76 200.31C1541.91 224.502 1619.77 278.154 1674.15 344.917C1691.26 365.932 1704.36 388.669 1731.18 405.557C1745 414.277 1741.98 420.54 1727.85 428.493C1705.75 440.921 1678.79 450.42 1654.26 460.793C1619.38 475.545 1583.74 490.517 1552.89 508.188C1531.62 520.37 1516.53 532.106 1511.95 550.373C1508.68 563.397 1509.44 576.668 1507.47 589.773C1503.73 614.667 1490.92 639.374 1468.24 660.024C1450.21 676.391 1428.76 691.267 1406.58 705.45C1377.76 723.916 1353.37 742.676 1331.48 764.593C1302.46 793.603 1261.67 847.116 1193.31 832.954C1117.91 817.328 1047.23 777.622 998.857 739.151C982.611 726.234 969.274 710.392 947.364 700.867C914.563 686.63 881.282 687.129 842.268 687.188C783.858 687.269 656.757 695.195 655.384 640.501C654.844 618.832 669.845 598.343 677.028 577.5C685.13 554.157 668.892 538.412 647.832 519.683Z" stroke="#171B1F"/>
<path fill-rule="evenodd" clip-rule="evenodd" d="M670.799 522.133C640.298 486.317 571.904 427.462 623.923 387.634C651.401 366.586 700.003 358.676 740.773 353.962C773.583 350.15 813.151 348.718 837.942 332.555C856.163 320.671 848.074 303.377 855.055 288.501C863.719 270.059 883.607 254.969 908.045 243.627C976.336 211.929 1071.29 202.201 1153.44 200.131C1238.76 197.986 1332.77 208.019 1413.05 227.319C1513.16 251.392 1588.16 296.974 1640.61 354.697C1650.28 365.353 1659.08 376.287 1668.37 387.071C1674.61 394.305 1683.87 401.303 1688.79 408.913C1696.98 421.601 1687.33 431.972 1671.85 440.241C1649.6 452.146 1622.26 460.619 1596.88 469.553C1562.18 481.78 1526.71 493.787 1494.43 508.132C1472.74 517.784 1450.04 528.183 1442.27 544.93C1436.98 556.352 1435.88 568.45 1436.07 580.28C1436.48 605.645 1434.35 626.157 1415.41 649.388C1384.24 687.527 1336.3 721.82 1285.67 750.355C1245.93 772.749 1183.05 807.536 1125.15 792.564C1073.2 779.157 1042.81 747.068 1008.58 721.123C991.938 708.511 973.245 696.992 951.279 688.02C923.587 676.71 897.517 671.964 864.707 670.114C809.485 666.999 726.218 666.189 709.148 624.79C702.845 609.512 706.443 593.687 703.137 578.21C698.818 557.746 686.187 540.2 670.799 522.133Z" stroke="#171B1F"/>
<path fill-rule="evenodd" clip-rule="evenodd" d="M702.514 523.459C680.795 484.269 652.262 434.878 704.719 400.047C730.128 383.174 765.869 373.741 800.46 366.692C825.234 361.64 864.571 360.153 879.76 344.622C890.915 333.192 892.46 317.425 902.551 305.179C916.419 288.343 937.426 274.476 962.071 263.621C1026.28 235.334 1109.9 224.404 1186.16 221.274C1351.87 214.483 1520.47 268.571 1609.14 357.56C1635.58 384.086 1669.71 412.319 1626.98 439.42C1580.33 468.985 1510.06 482.835 1454.39 503.843C1433.11 511.863 1406 521.505 1394.14 536.027C1387 544.756 1386.51 555.708 1386.18 565.318C1385.32 589.793 1382.07 611.804 1366.32 634.642C1342.01 669.935 1303.23 702.495 1259.28 729.166C1220.96 752.423 1166.3 779.754 1110.65 762.988C1067.97 750.104 1040.91 722.756 1007.75 702.597C970.849 680.146 925.214 665.018 875.1 657.625C826.35 650.453 772.88 645.616 747.188 615.144C738.375 604.691 729.167 591.157 725.863 579.588C720.53 560.512 712.721 541.741 702.514 523.459Z" stroke="#171B1F"/>
<path fill-rule="evenodd" clip-rule="evenodd" d="M737.877 523.736C727.829 484.162 726.713 442.897 773.397 411.707C795.184 397.156 822.726 386.818 850.576 377.452C871.067 370.56 892.228 364.747 907.532 353.449C921.71 342.988 932.488 330.841 946.177 320.106C964.235 305.88 985.841 293.565 1010.17 283.635C1071.14 258.789 1145.31 247.168 1216.28 243.137C1250.63 241.178 1287.89 240.159 1322.01 245.499C1354.96 250.652 1387.55 258.8 1417.84 268.3C1482.25 288.476 1538.07 318.024 1578.54 355.381C1606.29 381.005 1621.29 405.921 1585.36 431.915C1544.85 461.216 1481.33 477.383 1428.98 496.4C1393.08 509.442 1352.83 522.228 1346.13 549.945C1340.78 572 1336.45 592.933 1322.63 613.78C1302.06 644.53 1271.83 672.385 1233.71 695.692C1198.85 716.926 1154.75 734.944 1104.89 723.603C1065.39 714.602 1034.74 694.436 1000.22 680.019C961.756 663.917 919.494 655.039 874.992 647.901C834.998 641.46 797.34 631.562 771.49 610.549C766.2 606.255 760.643 601.58 756.564 596.776C751.36 590.646 751.764 584.57 750.742 577.7C748.08 559.569 742.42 541.647 737.877 523.736Z" stroke="#171B1F"/>
<path fill-rule="evenodd" clip-rule="evenodd" d="M776.868 520.501C777.727 482.912 792.19 447.386 831.805 418.092C848.741 405.561 868.965 395.239 887.601 383.755C902.606 374.498 916.786 365.896 934.04 358.267C974.968 340.204 1008.23 316.829 1051.73 300.743C1109.79 279.239 1176.3 267.353 1242.29 262.6C1274.51 260.278 1307.8 259.466 1340.4 262.09C1368.4 264.342 1395.22 272.25 1420.1 280.341C1468.85 296.19 1516.19 318.716 1547.85 347.214C1617.65 410.044 1480.04 455.725 1409.41 482.476C1376.93 494.782 1327.3 509.034 1313.99 533.409C1304.48 550.822 1298.69 568.531 1286.44 585.406C1253.53 630.727 1186.74 684.03 1097.74 676.934C1059.65 673.902 1024.94 661.585 989.381 653.317C952.77 644.801 914.984 640.054 876.931 634.845C841.368 629.979 813.024 623.055 790.053 604.491C779.074 595.626 780.044 585.014 779.066 574.138C777.469 556.273 776.482 538.307 776.868 520.501Z" stroke="#171B1F"/>
<path fill-rule="evenodd" clip-rule="evenodd" d="M812.373 515.686C826.673 458.948 879.78 397.007 957.869 364.056C1049.72 325.296 1149.24 292.656 1258.98 283.273C1309.87 278.922 1365.6 276.782 1413.61 291.009C1450.15 301.83 1492.6 318.005 1512.71 340.751C1561.9 396.39 1452.47 440.681 1390.13 466.421C1356.56 480.279 1313.84 493.782 1288.54 514.018C1273.86 525.75 1266.37 541.271 1254.52 554.157C1218.6 593.207 1159.49 624.704 1085.85 630.337C1051.8 632.939 1017.51 629.72 983.718 627.161C949.129 624.543 914.111 623.121 879.737 619.468C852.298 616.549 819.961 611.608 809.855 593.255C797.111 570.128 806.538 538.857 812.373 515.686Z" stroke="#171B1F"/>
<path fill-rule="evenodd" clip-rule="evenodd" d="M847.189 506.572C868.044 453.229 912.205 401.196 986.445 369.351C1025.81 352.465 1071.52 340.808 1115.39 329.291C1165.13 316.239 1217.1 306.107 1270.17 301.081C1336.25 294.821 1443.28 289.178 1477.81 336.239C1512.07 382.951 1425.48 424.294 1374.27 447.854C1341.44 462.947 1306.3 476.8 1274.94 493.299C1257.93 502.244 1244.82 512.58 1230.43 523.072C1190.65 552.141 1133.93 575.153 1076.13 587.438C1020.1 599.347 950.792 604.619 891.652 600.684C866.134 598.992 847.895 593.285 840.177 577.059C829.483 554.503 838.568 528.607 847.189 506.572Z" stroke="#171B1F"/>
<path fill-rule="evenodd" clip-rule="evenodd" d="M881.785 492.205C902.502 445.238 947.189 402.34 1012.37 374.152C1085.43 342.552 1179.52 324.993 1265.99 316.064C1311.95 311.321 1411.56 298.462 1434.99 335.264C1458.42 372.066 1390.69 408.334 1351.71 428.299C1304.4 452.494 1253.39 475.854 1202.44 497.562C1158.17 516.437 1110.94 535.733 1062.99 550.309C1035.95 558.577 1007.78 565.329 978.819 570.483C957.372 574.268 930.1 579.914 907.615 577.097C850.901 569.98 871.876 514.661 881.785 492.205Z" stroke="#171B1F"/>
<path fill-rule="evenodd" clip-rule="evenodd" d="M924.489 478.14C969.946 389.321 1113.97 345.638 1252.64 330.412C1284.86 326.877 1375.19 314.135 1393.2 341.267C1410.65 367.573 1355.14 398.771 1329.16 413.552C1248.63 459.353 1149.14 493.313 1054.86 526.956C1025.44 537.457 972.365 560.245 935.862 549.733C896.229 538.299 915.072 496.558 924.489 478.14Z" stroke="#171B1F"/>
<path fill-rule="evenodd" clip-rule="evenodd" d="M971.051 461.045C1010.58 395.636 1125.56 358.121 1231.28 345.754C1257.17 342.728 1322.93 333.307 1342.54 351.559C1360.69 368.444 1317.38 392.91 1301.17 402.632C1265.1 424.281 1222.35 442.116 1180.12 459.258C1141.07 475.118 1101.6 491.375 1060.51 504.789C1038.87 511.849 998.277 526.915 973.684 516.013C947.206 504.284 962.274 475.569 971.051 461.045Z" stroke="#171B1F"/>
<path fill-rule="evenodd" clip-rule="evenodd" d="M1022.36 441.935C1052.49 399.22 1133.19 371.482 1204.37 362.265C1223.53 359.791 1264.92 353.37 1281.08 364.778C1295.96 375.283 1271.98 390.685 1261.34 397.797C1214.19 429.325 1145.13 457.486 1081.85 474.783C1065.95 479.131 1037.35 487.666 1020.98 478.889C1004.2 469.876 1015.44 451.742 1022.36 441.935Z" stroke="#171B1F"/>
<path fill-rule="evenodd" clip-rule="evenodd" d="M1076.79 423.992C1093.77 402.782 1138.14 386.779 1174.9 381.685C1200.77 378.103 1231.87 381.197 1209.32 399.66C1186.92 417.982 1145.37 434.717 1110.15 442.135C1083.27 447.793 1062.21 442.211 1076.79 423.992Z" stroke="#171B1F"/>
<path fill-rule="evenodd" clip-rule="evenodd" d="M-300.007 570.899C-301.096 528.994 -336.721 485.444 -319.127 442.746C-304.68 407.678 -231.945 404.751 -188.311 388.863C-153.637 376.241 -133.96 353.881 -115.208 332.428C-98.3597 313.167 -83.2263 293.328 -65.4778 274.384C-53.9884 262.137 -34.2593 238.088 -9.34276 237.654C14.5105 237.235 36.3832 255.976 50.239 267.054C68.3048 281.494 84.3213 296.888 101.864 311.559C131.428 336.304 166.899 354.621 207.515 371.956C253.735 391.682 300.719 410.733 348.465 429.11C383.619 442.682 419.014 456.151 452.804 471.063C474 480.42 520.78 497.975 520.995 515.225C521.097 523.455 508.622 532.571 500.211 539.15C485.978 550.287 469.755 560.469 453.482 570.432C423.172 588.99 391.576 606.706 360.323 624.637C319.759 647.908 281.012 670.798 245.353 697.217C208.484 724.564 173.261 752.811 137.318 780.672C112.976 799.546 88.6598 820.742 53.5487 832.324C9.57181 846.802 -26.5254 831.536 -70.9995 831.359C-109.257 831.204 -106.437 775.782 -111.298 760.371C-116.177 744.773 -126.929 730.253 -131.096 714.617C-136.292 695.099 -136.36 675.131 -137.638 655.404C-139.19 631.275 -139.807 608.304 -181.057 599.103C-204.533 593.875 -229.93 592.776 -254.229 589.644C-269.971 587.612 -299.664 584.137 -300.007 570.899Z" stroke="#171B1F"/>
<path fill-rule="evenodd" clip-rule="evenodd" d="M-281.199 563.444C-285.209 528.318 -308.901 483.359 -286.497 447.1C-267.356 416.114 -207.495 412.097 -167.187 395.82C-133.912 382.395 -119.099 360.426 -102.466 338.843C-89.1211 321.53 -76.1803 304.05 -61.0326 287.29C-49.8693 274.939 -32.8237 254.086 -9.61266 251.53C11.2541 249.232 33.6322 267.641 45.3451 277.006C62.4335 290.678 77.0488 305.527 92.1451 320.064C118.671 345.599 145.832 368.562 184.654 387.32C223.649 406.158 266.31 420.244 309.426 434.904C343.156 446.375 376.715 458.179 408.762 471.421C432.634 481.281 466.957 493.901 477.88 511.483C486.527 525.391 442.673 548.472 429.74 556.619C403.12 573.368 374.911 589.092 346.651 604.719C312.199 623.762 276.649 640.414 246.224 662.137C191.808 700.974 146.321 749.337 76.3018 778.202C34.0702 795.612 -12.9273 800.063 -59.899 797.459C-78.4988 796.428 -82.9641 780.011 -85.3084 770.436C-89.207 754.53 -89.6965 738.35 -92.6934 722.379C-95.5014 707.428 -101.736 693.224 -106.759 678.564C-111.843 663.71 -113.268 648.491 -117.012 633.535C-119.331 624.25 -121.623 613.446 -131.765 605.981C-142.258 598.253 -159.57 595.015 -174.701 592.556C-203.116 587.98 -278.365 588.233 -281.199 563.444Z" stroke="#171B1F"/>
<path fill-rule="evenodd" clip-rule="evenodd" d="M-256.991 548.74C-263.736 516.497 -273.178 476.337 -245.702 446.631C-223.244 422.341 -175.347 417.102 -141.136 401.275C-112.681 388.114 -101.933 367.182 -87.8087 347.73C-76.2189 331.774 -64.5689 315.749 -50.5219 300.566C-39.8685 289.052 -26.1394 273.44 -4.9873 269.423C13.0977 265.99 33.5281 281.366 43.5543 289.019C60.6255 302.063 74.5436 316.677 88.3672 331.099C110.98 354.696 131.788 379.903 163.972 399.098C195.245 417.724 232.394 428.718 270.239 441.08C299.227 450.552 328.034 460.388 355.346 471.682C376.318 480.349 402.307 490.619 413.235 505.041C422.686 517.478 398.424 532.2 386.301 540.974C366.283 555.454 344.065 568.739 322.157 582.077C298.514 596.466 272.327 609.74 249.448 624.483C201.336 655.509 162.898 689.86 103.6 713.629C65.1961 729.027 13.5186 743.014 -31.8785 740.498C-64.526 738.686 -62.3781 693.517 -65.514 679.085C-70.6688 655.487 -80.6263 630.694 -96.4431 608.957C-110.026 590.331 -142.304 584.587 -171.996 580.409C-190.597 577.786 -210.091 576.371 -228.081 572.316C-248.907 567.618 -254.165 562.255 -256.991 548.74Z" stroke="#171B1F"/>
<path fill-rule="evenodd" clip-rule="evenodd" d="M-234.411 533.626C-238.427 506.366 -237.524 474.131 -211.513 450.55C-188.718 429.895 -148.132 424.457 -119.266 408.186C-96.7371 395.492 -87.889 374.794 -75.7734 358.007C-60.9664 337.481 -40.2177 299.571 -2.86482 291.847C31.8826 284.667 68.2208 330.537 80.8008 344.216C100.715 365.866 117.371 389.608 141.525 409.601C162.325 426.813 190.194 436.328 219.773 446.553C257.487 459.613 314.746 475.099 334.91 500.552C349.941 519.517 301.066 547.713 284.376 560.854C266.92 574.581 253.773 590.852 235.758 604.094C207.331 624.991 161.268 641.816 123.235 654.655C86.2609 667.145 38.2457 680.969 -3.6989 680.146C-31.2664 679.608 -36.5116 652.993 -42.3932 639.993C-50.8199 621.511 -62.024 604.949 -86.0919 592.379C-110.59 579.583 -139.464 573.553 -169.818 568.277C-185.399 565.587 -203.172 563.489 -217.111 558.057C-232.511 552.145 -232.864 544.104 -234.411 533.626Z" stroke="#171B1F"/>
<path fill-rule="evenodd" clip-rule="evenodd" d="M-206.899 517.914C-206.676 494.363 -198.063 469.25 -172.522 451.084C-151.249 435.952 -117.951 430.894 -97.5867 415.426C-81.4563 403.18 -73.2455 385.988 -62.4462 371.766C-49.2385 354.339 -30.5627 323.894 2.28082 317.846C34.3358 311.958 62.6882 345.491 74.9787 358.76C92.9775 378.216 107.548 398.839 125.71 418.241C139.937 433.463 157.336 443.274 180.503 453.085C207.698 464.609 245.641 477.375 260.169 496.44C270.643 510.244 245.29 532.301 236.085 544.462C229.914 552.629 224.266 560.926 221.163 569.778C218.746 576.672 218.506 583.052 211.504 588.972C193.874 603.863 155.219 605.805 128.992 610.714C94.1603 617.228 57.2028 624.63 20.751 626.043C-1.6532 626.926 -13.0867 614.021 -25.8744 604.944C-40.9848 594.212 -62.3776 586.494 -81.0621 578.396C-105.72 567.691 -132.556 561.033 -160.317 554.214C-172.839 551.136 -187.546 548.117 -197.248 541.999C-207.379 535.657 -206.976 526.413 -206.899 517.914Z" stroke="#171B1F"/>
<path fill-rule="evenodd" clip-rule="evenodd" d="M-178.004 503.933C-173.577 484.153 -159.781 465.249 -136.478 451.267C-118.616 440.532 -94.8931 434.488 -80.5566 421.59C-67.1982 409.566 -57.8894 395.895 -46.856 383.04C-35.1792 369.449 -17.8313 346.734 9.10005 343.036C38.1248 339.053 60.4832 361.967 72.8635 374.667C88.5041 390.716 100.387 407.983 114.372 424.585C124.907 436.959 138.346 448.275 154.241 458.158C170.911 468.577 193.518 478.555 201.952 492.881C209.408 505.57 195.457 520.921 192.995 533.787C190.361 547.533 194.977 561.972 180.374 573.775C150.26 598.116 74.6824 593.602 31.4756 594.123C-11.1564 594.66 -45.4318 579.765 -79.9303 565.595C-102.718 556.239 -126.449 548.317 -149.811 539.6C-173.628 530.706 -181.899 521.339 -178.004 503.933Z" stroke="#171B1F"/>
<path fill-rule="evenodd" clip-rule="evenodd" d="M-151.157 492.612C-138.065 463.957 -97.1756 448.727 -67.9444 427.073C-44.0272 409.345 -26.0936 372.632 14.1862 367.776C59.9173 362.264 87.2942 410.908 103.193 429.678C120.835 450.495 152.255 467.428 165.321 489.464C172.189 501.03 166.291 511.822 162.634 523.383C158.625 536.077 155.612 549.056 141.773 559.273C114.534 579.381 61.3338 579.241 23.02 579.795C-16.6417 580.369 -51.7278 566.59 -83.3283 552.838C-116.843 538.274 -164.566 521.997 -151.157 492.612Z" stroke="#171B1F"/>
<path fill-rule="evenodd" clip-rule="evenodd" d="M-129.229 484.842C-114.477 464.426 -83.4773 447.829 -58.3228 432.161C-37.3276 419.099 -14.7412 392.804 17.2705 390.93C54.8941 388.719 77.6966 416.797 92.5005 434.014C107.071 450.932 128.066 468.795 136.134 487.362C144.548 506.704 122.143 532.754 100.776 546.441C76.9443 561.703 37.9544 567.342 4.49865 566.733C-30.5309 566.114 -62.6723 553.5 -89.2017 540.417C-117.564 526.431 -146.385 508.541 -129.229 484.842Z" stroke="#171B1F"/>
<path fill-rule="evenodd" clip-rule="evenodd" d="M-108.883 480.998C-94.7916 464.018 -70.3656 449.654 -47.8439 436.841C-30.4635 426.949 -4.81713 410.13 20.258 409.718C47.8433 409.263 71.2219 423.381 82.1885 437.852C92.9993 452.125 104.39 470.02 106.009 485.679C109.523 519.779 37.9759 557.976 -15.7491 554.868C-66.687 551.92 -136.979 514.83 -108.883 480.998Z" stroke="#171B1F"/>
<path fill-rule="evenodd" clip-rule="evenodd" d="M-90.0663 479.126C-70.6267 457.002 -23.4074 425.461 20.308 424.712C70.486 423.856 83.0824 458.955 76.542 484.391C69.8977 510.351 12.0459 547.926 -34.0832 542.849C-79.105 537.895 -113.105 505.364 -90.0663 479.126Z" stroke="#171B1F"/>
<path fill-rule="evenodd" clip-rule="evenodd" d="M-70.1986 475.549C-53.7397 457.025 -18.6177 433.887 18.0139 433.187C61.6613 432.358 60.8379 461.991 50.9403 480.435C40.6481 499.584 -4.68034 532.291 -42.8986 527.127C-80.0619 522.086 -85.9713 493.303 -70.1986 475.549Z" stroke="#171B1F"/>
<path fill-rule="evenodd" clip-rule="evenodd" d="M-52.8945 473.417C-42.0305 460.199 -14.8403 443.494 11.008 442.959C42.6022 442.317 36.4606 465.82 28.2975 477.164C18.5947 490.663 -13.9285 514.118 -41.2219 510.316C-68.0938 506.575 -61.8575 484.308 -52.8945 473.417Z" stroke="#171B1F"/>
<path fill-rule="evenodd" clip-rule="evenodd" d="M1433.35 1228.63C1363.42 1255.15 1284.36 1277.04 1209.82 1299.29C1100.87 1331.8 990.324 1363.43 875.853 1387.65C814.48 1400.63 734.953 1419.35 669.099 1409.18C645.022 1405.46 623.065 1394.22 601.477 1386.91C571.71 1376.84 541.504 1367.26 511.35 1357.67C450.861 1338.43 390.183 1319.39 330.733 1298.92C302.107 1289.06 274.33 1276.65 244.528 1268.23C227.112 1263.32 206.271 1265.62 187.662 1265.93C144.555 1266.65 101.474 1268.03 58.3925 1269.19C5.69768 1270.62 -47.1173 1272.14 -99.8722 1271.58C-123.666 1271.32 -181.94 1273.96 -195.039 1261.15C-202.086 1254.25 -185.477 1241.81 -177.777 1236.06C-163.64 1225.48 -147.391 1215.95 -131.357 1206.51C-94.2756 1184.69 -54.894 1163.91 -21.933 1139.54C-4.99752 1127.01 17.1912 1111.7 6.13547 1094.59C-5.02322 1077.32 -24.3536 1062.36 -36.1475 1045.14C-49.7267 1025.33 -55.3576 1004.71 -61.7696 983.696C-66.5163 968.168 -77.572 954.409 -87.9667 940.093C-99.4516 924.27 -111.349 908.312 -119.323 891.625C-124.593 880.602 -133.099 860.772 -114.662 853.793C-88.4646 843.87 -39.3406 851.905 -9.47822 854.829C31.7918 858.862 72.7614 864.001 113.92 868.426C143.799 871.644 173.782 875.174 204.159 875.549C253.129 876.155 302.261 874.058 351.102 872.106C441.539 868.49 531.328 863.588 622.069 863.588C701.569 863.588 885.286 921.073 928.29 931.194C1014.13 951.4 1102.25 970.555 1183.47 997.438C1205.45 1004.72 1239.27 1014.42 1250.83 1029.4C1257.96 1038.63 1254.68 1043.96 1271.51 1049.91C1294.46 1058.03 1323.87 1061.22 1349.27 1064.85C1390.19 1070.69 1431.43 1075.64 1472.53 1080.94C1555.67 1091.62 1638.25 1103.7 1721.05 1115.32C1746.08 1118.83 1776.36 1119.61 1800.22 1125.8C1815.6 1129.78 1814.01 1134.78 1802.1 1140.82C1781.22 1151.42 1751.95 1157.3 1727.28 1163.35C1691.13 1172.2 1654.39 1180.11 1617.64 1187.89C1580.88 1195.68 1543.94 1203.23 1507.17 1211.03C1482.88 1216.17 1455.18 1220.35 1433.35 1228.63Z" stroke="#171B1F"/>
<path fill-rule="evenodd" clip-rule="evenodd" d="M1375.8 1222.79C1301.83 1249.37 1219.72 1270.54 1140.56 1291.19C1039.25 1317.64 935.653 1342.43 828.91 1358.96C766.236 1368.66 692.289 1379.38 628.25 1368.25C605.405 1364.28 588.337 1355.36 568.753 1347.48C546.431 1338.5 523.25 1330.26 500.07 1322.16C452.352 1305.47 404.13 1289.36 355.405 1273.81C329.597 1265.55 301.188 1254.48 272.031 1251.61C248.851 1249.32 222.519 1252.63 199.235 1253.59C157.304 1255.32 115.381 1257.1 73.4326 1258.62C25.0278 1260.36 -23.5144 1261.97 -72.0222 1261.7C-99.0578 1261.54 -145.471 1264.11 -164.591 1253.19C-181.272 1243.66 -120.539 1209.2 -109.858 1202.65C-76.5039 1182.21 -41.4236 1162.74 -10.3786 1140.88C7.96847 1127.99 30.3079 1112.31 38.0434 1095.22C44.6284 1080.66 31.9219 1064.06 24.4182 1050.6C15.0343 1033.74 7.46196 1016.26 -3.44157 999.756C-13.1517 985.049 -28.6056 971.948 -42.1792 958.578C-57.1093 943.871 -72.2283 928.922 -83.3122 912.877C-90.1032 903.004 -101.342 886.47 -87.8453 877.059C-72.2541 866.209 -24.1926 873.299 -4.43748 874.846C35.6394 878.026 75.4072 882.753 115.209 886.986C181.317 894.012 244.343 900.157 311.662 898.685C399.328 896.762 486.908 892.239 574.557 889.736C606.924 888.801 639.806 886.921 672.199 887.937C690.77 888.522 704.91 892.067 715.711 900.066C730.46 910.981 764.433 917.024 788.06 923.287C824.9 933.047 862.204 942.125 899.405 951.321C981.07 971.518 1064.31 990.985 1141.76 1017.11C1166.26 1025.37 1194.32 1034.58 1212.44 1048.23C1222.55 1055.84 1220 1063.17 1226.18 1071.26C1234.35 1081.9 1261.22 1086.71 1277.29 1090.19C1308.29 1096.91 1340.56 1101.42 1372.58 1105.64C1445.04 1115.19 1517.68 1121.47 1591.32 1126.1C1608.57 1127.17 1676.53 1130.89 1640.84 1148.83C1601.4 1168.66 1544.46 1178.38 1498.04 1189.55C1456.22 1199.59 1414.37 1208.94 1375.8 1222.79Z" stroke="#171B1F"/>
</svg>
